<svg xmlns="http://www.w3.org/2000/svg" version="1.1" xmlns:xlink="http://www.w3.org/1999/xlink" xmlns:svgjs="http://svgjs.dev/svgjs" width="1000" height="1000" viewBox="0 0 1000 1000"><rect width="1000" height="1000" fill="#ffffff"></rect><g transform="matrix(0.7,0,0,0.7,150.0000000000001,106.25)"><svg viewBox="0 0 320 360" data-background-color="#ffffff" preserveAspectRatio="xMidYMid meet" height="1125" width="1000" xmlns="http://www.w3.org/2000/svg" xmlns:xlink="http://www.w3.org/1999/xlink"><g id="tight-bounds" transform="matrix(1,0,0,1,0,0)"><svg viewBox="0 0 320 360" height="360" width="320"><g><svg></svg></g><g><svg viewBox="0 0 320 360" height="360" width="320"><g><path xmlns="http://www.w3.org/2000/svg" d="M20.961 227.22l3.726 4.658-1.863-6.056c-0.466-2.795-3.726 0.466-1.863 1.398M25.153 224.425c1.397 2.329 2.795 4.658 2.795 6.987 0 3.261 2.795 4.658 5.123 5.589-3.261-3.726-5.124-13.974-7.918-12.576M204.017 26.929c7.918 0 15.371-0.932 23.756 0.931 20.495 5.124 37.729 15.371 49.374 29.811l32.606 52.169c1.397 13.042 4.192 27.482 3.726 43.319 3.261 0 2.795-4.658 6.521-5.59-3.726 9.316-5.59 20.961-6.521 34.469-2.329-7.453 0-18.632 0.466-24.687-3.261 5.124-5.124 1.397-5.124-0.932 0.466-3.726-1.397-3.261-2.795-4.658-5.124-4.658-8.384-9.782-12.11-17.7 2.329-6.055 2.795-14.905-4.658-19.563-2.329-1.397-5.124-3.726-6.521-7.453-1.863-5.124-5.124-11.179-4.193-19.097 0.466-2.329-6.987 5.124-11.179 1.863-18.166-12.576-36.332-27.016-58.224-39.127-11.645 0-20.029-4.192-24.221-9.316-3.726-4.658-0.932-10.713 4.658-11.179 3.261 0 6.987-0.932 9.782 0.932 0.466-1.863 2.329-4.192 4.657-4.192M157.904 16.215l0.932 0.466c4.658 0.932 6.987 7.453 12.11 5.124 0 3.261 0.466 6.521-0.466 8.85-1.397 3.726-5.59 3.726-8.85 3.726-31.208-1.863-49.374 11.179-68.471 22.358-5.124 3.261-10.713 5.59-14.906 9.782-20.029 18.632-41.921 35.866-47.045 70.335l-4.192 38.195c-0.466 4.192-5.124 8.384-4.192 13.508l3.26 22.824c-3.261-3.261-5.124 0.932-4.192 2.795 0.466 1.397 2.329 6.055 5.124 1.863 3.726 6.987 7.453 20.495 12.576 26.55 15.837 18.632 36.332 35.4 53.101 52.169 4.192-0.932 7.453-0.932 8.384-3.727 1.397 2.795-1.397 5.59-3.726 6.056 7.453 4.658 15.837 8.85 27.016 9.781 14.44 0.932 27.948 3.261 40.524 6.522 6.521-1.863 13.042-2.795 20.029-3.261 2.329 0 3.726-3.726 6.521-4.658l0.466-4.658c2.795 4.192 2.329-1.397 0.466-4.192 3.261 2.795 4.192 5.124 5.589 6.987 0-1.397 3.726-6.521 3.727-0.466l0.931-6.055c1.397-0.932 1.863 5.124 3.261 0.931 1.397-4.192 4.192-0.932 6.987-2.329-0.932 1.863-0.466 5.59 2.794 3.261l3.727-3.261c2.329 5.59 6.055 3.261 7.918 2.329 20.495-13.042 40.99-28.413 60.553-43.784l-0.466 6.055 2.329-7.453c2.329 2.329 4.192 0.466 5.124-0.931 2.795-4.658 6.521-9.316 12.577-13.508-7.453 20.029-16.303 35.866-27.482 48.908l-4.658 5.59c0 3.261-0.932 7.453-4.658 7.918-1.863 0.466-5.59-0.932-8.384 1.863-1.397 1.863 3.261 5.59-0.466 2.795-3.261-2.329-6.521 0-10.248 0.932-2.795 0.932 1.863 3.726 2.795 5.589 0.932 1.863 1.863 3.726 1.398 6.056l-5.124-5.59c-6.055 3.261-9.782 9.316-14.906 13.974-2.329 1.863-1.397 5.124-1.397 7.918-3.261 0-6.987-0.932-8.85 0.932-1.397 1.863-0.932 4.658-0.932 7.453-4.658-0.466-5.124-7.453-9.315-6.056-4.192 0.932-8.85 1.397-12.577 3.727 2.795 5.59-4.658 2.329-3.726 3.26-6.987-4.192-13.042-7.453-20.495-4.658-15.837-5.124-35.4-2.795-49.84-0.931 0-2.329 0.466-4.658-0.466-5.124-0.932 2.329-3.726 1.397-3.26 1.397-8.85-6.055-17.7-9.782-27.016-14.905-8.384 0.932-16.303-3.261-18.632-5.59-6.521-6.055-13.974-2.795-20.029-4.192-13.042-3.261-17.7-16.769-19.098-26.084-0.932-4.658-4.658-6.521-6.055-6.056-6.055-19.563-15.371-37.263-22.824-55.429-1.863-4.658-1.397-9.316-1.397-14.44 2.329 0.932 4.658 0.466 4.192-2.794-2.329-15.371-7.918-27.016-13.974-38.195 3.261-15.837 3.726-34.469 11.179-48.443 6.521-12.576 18.632-19.098 27.016-29.811 2.795-3.726 2.795-8.85 5.59-12.11 9.316-9.316 18.632-19.098 28.879-27.482 4.658-3.726 10.247 0 17.234-1.397 2.329-8.384 11.645-15.837 20.495-13.508 3.726 0.932 11.179-8.85 13.508-9.782 3.726-1.397 1.863 3.726 1.863 6.987 8.85-6.987 20.961-10.713 32.14-14.906" fill="#35185a" fill-rule="nonzero" stroke="none" stroke-width="1" stroke-linecap="butt" stroke-linejoin="miter" stroke-miterlimit="10" stroke-dasharray="" stroke-dashoffset="0" font-family="none" font-weight="none" font-size="none" text-anchor="none" style="mix-blend-mode: normal" data-fill-palette-color="tertiary"></path></g><g transform="matrix(1,0,0,1,122.46162517920266,90)"><svg viewBox="0 0 75.07674964159469 180" height="180" width="75.07674964159469"><g><svg viewBox="0 0 75.07674964159469 180" height="180" width="75.07674964159469"><g><svg viewBox="0 0 102.55263157894737 245.8747051828073" height="180" width="75.07674964159469"><g transform="matrix(1,0,0,1,0,65.87470518280732)"><svg viewBox="0 0 102.55263157894737 180" height="180" width="102.55263157894737"><g id="textblocktransform"><svg viewBox="0 0 102.55263157894737 180" height="180" width="102.55263157894737" id="textblock"><g><svg viewBox="0 0 102.55263157894737 180" height="180" width="102.55263157894737"><g transform="matrix(1,0,0,1,0,0)"><svg width="102.55263157894737" viewBox="2.5 -36.04999923706055 21.649999618530273 38" height="180" data-palette-color="#35185a"><path d="M22.75-35.6Q24-35.1 24-34.2L24-34.2Q24-33.3 22.75-31.9L22.75-31.9Q22.2-31.95 21.15-31.95L21.15-31.95Q18.85-31.95 16.75-31.33 14.65-30.7 12.4-29.4L12.4-29.4Q11.35-28.75 10.6-27.75L10.6-27.75Q10.05-27.15 10.05-26.35L10.05-26.35Q10.05-25 11.55-23.75L11.55-23.75Q13-22.25 16.3-18.3L16.3-18.3 17.45-17.1Q19.9-14.45 21.33-12.6 22.75-10.75 23.75-8.35L23.75-8.35Q24.15-7.3 24.15-6.45L24.15-6.45Q24.15-4.3 22.5-2.5L22.5-2.5Q20.6-0.4 18.1 0.58 15.6 1.55 12.45 1.8L12.45 1.8Q12.05 1.85 11.5 1.9 10.95 1.95 10.25 1.95L10.25 1.95Q9.8 1.95 8.9 1.85L8.9 1.85Q7.8 1.9 6.6 1.48 5.4 1.05 4.4 0.25L4.4 0.25Q2.5-1.35 2.5-3.3L2.5-3.3Q2.5-4.95 3.9-6.65L3.9-6.65Q4.6-6.55 4.73-6.23 4.85-5.9 4.78-5.5 4.7-5.1 4.7-4.85L4.7-4.85Q4.7-4.7 4.8-4.4L4.8-4.4Q6.75-3.5 9.45-3.5L9.45-3.5Q12.45-3.5 15.13-4.53 17.8-5.55 18.4-7.05L18.4-7.05Q18.75-8.05 16.7-10.58 14.65-13.1 12.1-15.5L12.1-15.5Q9.7-17.65 7.75-19.75L7.75-19.75Q6.65-20.95 6.03-22.53 5.4-24.1 5.4-25.8L5.4-25.8Q5.4-28.1 6.58-30.15 7.75-32.2 10.1-33.5L10.1-33.5Q14.6-36.05 19.3-36.05L19.3-36.05Q19.95-36.05 21.15-35.95L21.15-35.95Q22.25-35.85 22.75-35.6L22.75-35.6Z" opacity="1" transform="matrix(1,0,0,1,0,0)" fill="#35185a" class="undefined-text-0" data-fill-palette-color="primary" id="text-0"></path></svg></g></svg></g></svg></g></svg></g><g transform="matrix(1,0,0,1,19.58755263157895,0)"><svg viewBox="0 0 63.37752631578947 39.60838518280732" height="39.60838518280732" width="63.37752631578947"><g><svg xmlns="http://www.w3.org/2000/svg" xmlns:xlink="http://www.w3.org/1999/xlink" version="1.1" x="0" y="0" viewBox="0 18.003889083862305 96 59.99610900878906" enable-background="new 0 0 96 96" xml:space="preserve" height="39.60838518280732" width="63.37752631578947" class="icon-icon-0" data-fill-palette-color="accent" id="icon-0"><path d="M28.416 76.572c-1.024 0-2.048-0.393-2.832-1.172L1.172 50.844C0.42 50.092 0 49.068 0 48c0-1.068 0.42-2.088 1.176-2.848l24.412-24.548c1.56-1.568 4.092-1.576 5.656 0.004 1.56 1.58 1.56 4.12-0.004 5.696L9.664 48l21.58 21.704c1.56 1.571 1.56 4.116 0 5.688C30.464 76.18 29.432 76.572 28.416 76.572L28.416 76.572z" fill="#bb84e8" data-fill-palette-color="accent"></path><path d="M67.588 76.572c-1.023 0-2.052-0.393-2.828-1.18-1.568-1.572-1.568-4.117 0-5.697L86.344 48 64.76 26.304c-1.568-1.58-1.568-4.12 0-5.696 1.568-1.58 4.088-1.576 5.656-0.008l24.412 24.552C95.58 45.9 96 46.928 96 48c0 1.068-0.42 2.088-1.172 2.844L70.416 75.393C69.641 76.18 68.611 76.572 67.588 76.572L67.588 76.572z" fill="#bb84e8" data-fill-palette-color="accent"></path><path d="M38.348 78c-0.476 0-0.964-0.084-1.436-0.264-2.06-0.805-3.092-3.133-2.296-5.213l19.868-51.947c0.795-2.076 3.107-3.096 5.168-2.304 2.06 0.796 3.088 3.124 2.296 5.204L42.072 75.424C41.476 77.016 39.952 78 38.348 78z" fill="#bb84e8" data-fill-palette-color="accent"></path></svg></g></svg></g><g></g></svg></g></svg></g></svg></g></svg></g><defs></defs></svg><rect width="320" height="360" fill="none" stroke="none" visibility="hidden"></rect></g></svg></g></svg>